<svg width="380" height="380" viewBox="0 0 380 380" fill="none" xmlns="http://www.w3.org/2000/svg">
<rect width="380" height="380" fill="url(#paint0_radial_49_58)"/>
<rect width="380" height="380" stroke="black"/>
<path d="M173.886 227.402L198.201 258.119C207.201 269.494 211.709 275.185 216.426 273.794C221.136 272.41 222.756 264.927 225.989 249.952L243.914 166.886C248.901 143.819 251.391 132.294 245.856 126.602C240.321 120.911 230.729 125.144 211.544 133.602L122.548 172.877C107.203 179.652 99.5306 183.036 99.0431 188.852C98.9856 189.445 98.9856 190.043 99.0431 190.635C99.5156 196.46 107.173 199.869 122.503 206.694C129.441 209.785 132.913 211.335 135.403 214.294C135.683 214.627 135.953 214.972 136.213 215.327C138.508 218.494 139.483 222.66 141.441 230.96L145.108 246.519C147.006 254.602 147.958 258.652 150.456 259.202C152.953 259.752 155.121 256.402 159.463 249.694L173.886 227.402ZM173.886 227.402L171.508 224.652C168.793 221.502 167.436 219.935 167.436 217.985C167.436 216.035 168.786 214.46 171.508 211.319L198.306 180.286" stroke="#A7BA88" stroke-width="20" stroke-linecap="round" stroke-linejoin="round"/>
<defs>
<radialGradient id="paint0_radial_49_58" cx="0" cy="0" r="1" gradientUnits="userSpaceOnUse" gradientTransform="translate(190 190) rotate(90) scale(190)">
<stop stop-color="#314040"/>
<stop offset="1" stop-color="#20282C"/>
</radialGradient>
</defs>
</svg>
