<svg width="59" height="57" viewBox="0 0 59 57" fill="none" xmlns="http://www.w3.org/2000/svg">
<rect width="59" height="57" rx="28.5" fill="#D9D9D9"/>
<path d="M29.5 28.5C34.1944 28.5 38 24.6944 38 20C38 15.3056 34.1944 11.5 29.5 11.5C24.8056 11.5 21 15.3056 21 20C21 24.6944 24.8056 28.5 29.5 28.5Z" fill="#9B9B9B"/>
<path d="M15.3432 39.805C16.7478 33.872 22.6404 30.625 28.7413 30.625H30.2585C36.3594 30.625 42.252 33.8699 43.6567 39.805C43.9287 40.9546 44.1454 42.1574 44.2665 43.3793C44.3834 44.548 43.4229 45.5 42.2499 45.5H16.7499C15.5769 45.5 14.6164 44.5459 14.7333 43.3793C14.8544 42.1574 15.0712 40.9546 15.3432 39.805Z" fill="#9B9B9B"/>
</svg>
